G04 (created by PCBNEW (2013-jul-07)-stable) date jeu. 07 mai 2020 19:37:15 IST*
%MOIN*%
G04 Gerber Fmt 3.4, Leading zero omitted, Abs format*
%FSLAX34Y34*%
G01*
G70*
G90*
G04 APERTURE LIST*
%ADD10C,0.00590551*%
%ADD11R,0.06X0.06*%
%ADD12C,0.06*%
%ADD13C,0.055*%
%ADD14R,0.055X0.055*%
%ADD15C,0.105*%
%ADD16R,0.0514961X0.0514961*%
%ADD17C,0.0514961*%
%ADD18C,0.018*%
G04 APERTURE END LIST*
G54D10*
G54D11*
X1956Y-14952D03*
G54D12*
X956Y-14952D03*
X1956Y-13952D03*
X956Y-13952D03*
X1956Y-12952D03*
X956Y-12952D03*
X1956Y-11952D03*
X956Y-11952D03*
X1956Y-10952D03*
X956Y-10952D03*
G54D11*
X9240Y-11854D03*
G54D12*
X8240Y-11854D03*
X9240Y-10854D03*
X8240Y-10854D03*
X9240Y-9854D03*
X8240Y-9854D03*
X9240Y-8854D03*
X8240Y-8854D03*
G54D13*
X13503Y-4348D03*
X13503Y-848D03*
X14151Y-11141D03*
X10651Y-11141D03*
X14151Y-9527D03*
X10651Y-9527D03*
G54D14*
X11692Y-7232D03*
G54D13*
X11692Y-6232D03*
G54D11*
X15350Y-14921D03*
G54D12*
X16350Y-14921D03*
X17350Y-14921D03*
X18350Y-14921D03*
G54D11*
X6248Y-14960D03*
G54D12*
X5248Y-14960D03*
G54D11*
X10185Y-14960D03*
G54D12*
X9185Y-14960D03*
G54D15*
X7511Y-4307D03*
X6511Y-1807D03*
G54D16*
X18543Y-10708D03*
G54D17*
X18543Y-9921D03*
X18543Y-9133D03*
G54D16*
X16062Y-10669D03*
G54D17*
X16062Y-9881D03*
X16062Y-9094D03*
G54D16*
X18543Y-3425D03*
G54D17*
X18543Y-2637D03*
X18543Y-1850D03*
G54D13*
X11811Y-848D03*
X11811Y-4348D03*
X10157Y-3137D03*
X10157Y-2137D03*
G54D18*
X11507Y-7417D02*
X11692Y-7232D01*
X11417Y-7417D02*
X11507Y-7417D01*
X11379Y-7425D02*
X11367Y-7432D01*
X11404Y-7417D02*
X11379Y-7425D01*
X11417Y-7417D02*
X11404Y-7417D01*
X9240Y-8854D02*
X11367Y-7432D01*
X11877Y-7417D02*
X11692Y-7232D01*
X11877Y-7507D02*
X11877Y-7417D01*
X11894Y-7562D02*
X11908Y-7575D01*
X11877Y-7526D02*
X11894Y-7562D01*
X11877Y-7507D02*
X11877Y-7526D01*
X14151Y-9527D02*
X11908Y-7575D01*
X7511Y-4307D02*
X11811Y-4348D01*
X7744Y-11418D02*
X8240Y-10854D01*
X7990Y-12476D02*
X8103Y-12500D01*
X7793Y-12353D02*
X7990Y-12476D01*
X7650Y-12171D02*
X7793Y-12353D01*
X7577Y-11952D02*
X7650Y-12171D01*
X7583Y-11720D02*
X7577Y-11952D01*
X7668Y-11505D02*
X7583Y-11720D01*
X7744Y-11418D02*
X7668Y-11505D01*
X16487Y-14275D02*
X8103Y-12500D01*
X16570Y-14293D02*
X16487Y-14275D01*
X16722Y-14369D02*
X16570Y-14293D01*
X16786Y-14425D02*
X16722Y-14369D01*
X17350Y-14921D02*
X16786Y-14425D01*
X956Y-13952D02*
X956Y-14952D01*
X1375Y-15477D02*
X956Y-14952D01*
X1574Y-15612D02*
X1655Y-15612D01*
X1426Y-15541D02*
X1574Y-15612D01*
X1375Y-15477D02*
X1426Y-15541D01*
X5246Y-15620D02*
X1655Y-15612D01*
X5462Y-15589D02*
X5529Y-15557D01*
X5319Y-15620D02*
X5462Y-15589D01*
X5246Y-15620D02*
X5319Y-15620D01*
X5986Y-15342D02*
X5529Y-15557D01*
X6037Y-15286D02*
X6038Y-15260D01*
X6010Y-15330D02*
X6037Y-15286D01*
X5986Y-15342D02*
X6010Y-15330D01*
X6038Y-15170D02*
X6038Y-15260D01*
X6248Y-14960D02*
X6038Y-15170D01*
X10651Y-9527D02*
X9240Y-9854D01*
X6511Y-1807D02*
X10157Y-3137D01*
X10157Y-2137D02*
X11811Y-848D01*
X18710Y-3592D02*
X18543Y-3425D01*
X18800Y-3592D02*
X18710Y-3592D01*
X18819Y-3592D02*
X18800Y-3592D01*
X18852Y-3606D02*
X18819Y-3592D01*
X18865Y-3620D02*
X18852Y-3606D01*
X19093Y-3855D02*
X18865Y-3620D01*
X19098Y-3861D02*
X19093Y-3855D01*
X19108Y-3876D02*
X19098Y-3861D01*
X19111Y-3883D02*
X19108Y-3876D01*
X19124Y-3915D02*
X19111Y-3883D01*
X19124Y-3915D02*
X19124Y-3915D01*
X19197Y-4091D02*
X19124Y-3915D01*
X19200Y-4099D02*
X19197Y-4091D01*
X19204Y-4116D02*
X19200Y-4099D01*
X19204Y-4125D02*
X19204Y-4116D01*
X19217Y-11412D02*
X19204Y-4125D01*
X19217Y-11412D02*
X19217Y-11412D01*
X19217Y-11639D02*
X19217Y-11412D01*
X19217Y-11645D02*
X19217Y-11639D01*
X19009Y-14962D02*
X19217Y-11645D01*
X19003Y-15045D02*
X19009Y-14962D01*
X18952Y-15204D02*
X19003Y-15045D01*
X18862Y-15345D02*
X18952Y-15204D01*
X18741Y-15459D02*
X18862Y-15345D01*
X18595Y-15539D02*
X18741Y-15459D01*
X18433Y-15581D02*
X18595Y-15539D01*
X18350Y-15581D02*
X18433Y-15581D01*
X16350Y-15581D02*
X18350Y-15581D01*
X16276Y-15581D02*
X16350Y-15581D01*
X16134Y-15549D02*
X16276Y-15581D01*
X16068Y-15518D02*
X16134Y-15549D01*
X15611Y-15302D02*
X16068Y-15518D01*
X15588Y-15291D02*
X15611Y-15302D01*
X15560Y-15247D02*
X15588Y-15291D01*
X15560Y-15221D02*
X15560Y-15247D01*
X15560Y-15131D02*
X15560Y-15221D01*
X15350Y-14921D02*
X15560Y-15131D01*
X18543Y-1850D02*
X13503Y-848D01*
X9450Y-11776D02*
X9240Y-11854D01*
X9540Y-11776D02*
X9450Y-11776D01*
X10651Y-11776D02*
X9540Y-11776D01*
X10827Y-11754D02*
X10882Y-11733D01*
X10710Y-11776D02*
X10827Y-11754D01*
X10651Y-11776D02*
X10710Y-11776D01*
X13921Y-10549D02*
X10882Y-11733D01*
X13962Y-10535D02*
X13921Y-10549D01*
X16062Y-9881D02*
X13962Y-10535D01*
X1521Y-10456D02*
X956Y-10952D01*
X1554Y-10427D02*
X1521Y-10456D01*
X1629Y-10377D02*
X1554Y-10427D01*
X1670Y-10358D02*
X1629Y-10377D01*
X11417Y-5660D02*
X1670Y-10358D01*
X11500Y-5620D02*
X11417Y-5660D01*
X11683Y-5590D02*
X11500Y-5620D01*
X11865Y-5614D02*
X11683Y-5590D01*
X12035Y-5689D02*
X11865Y-5614D01*
X12105Y-5749D02*
X12035Y-5689D01*
X15690Y-8814D02*
X12105Y-5749D01*
X15690Y-8814D02*
X15694Y-8818D01*
X16062Y-9094D02*
X15694Y-8818D01*
X467Y-11350D02*
X956Y-11952D01*
X408Y-11277D02*
X467Y-11350D01*
X338Y-11106D02*
X408Y-11277D01*
X320Y-10922D02*
X338Y-11106D01*
X356Y-10739D02*
X320Y-10922D01*
X442Y-10576D02*
X356Y-10739D01*
X572Y-10444D02*
X442Y-10576D01*
X654Y-10399D02*
X572Y-10444D01*
X1424Y-9978D02*
X654Y-10399D01*
X1474Y-9952D02*
X1424Y-9978D01*
X11221Y-5254D02*
X1474Y-9952D01*
X11358Y-5189D02*
X11221Y-5254D01*
X11656Y-5137D02*
X11358Y-5189D01*
X11956Y-5168D02*
X11656Y-5137D01*
X12237Y-5281D02*
X11956Y-5168D01*
X12356Y-5373D02*
X12237Y-5281D01*
X14103Y-6724D02*
X12356Y-5373D01*
X14111Y-6729D02*
X14114Y-6731D01*
X14106Y-6726D02*
X14111Y-6729D01*
X14103Y-6724D02*
X14106Y-6726D01*
X14314Y-6847D02*
X14114Y-6731D01*
X14314Y-6847D02*
X14314Y-6847D01*
X14323Y-6852D02*
X14314Y-6847D01*
X14331Y-6856D02*
X14333Y-6857D01*
X14326Y-6853D02*
X14331Y-6856D01*
X14323Y-6852D02*
X14326Y-6853D01*
X16210Y-7631D02*
X14333Y-6857D01*
X16210Y-7631D02*
X16210Y-7631D01*
X16219Y-7635D02*
X16210Y-7631D01*
X16219Y-7635D02*
X16219Y-7635D01*
X16415Y-7716D02*
X16219Y-7635D01*
X16419Y-7718D02*
X16415Y-7716D01*
X16427Y-7722D02*
X16419Y-7718D01*
X16430Y-7725D02*
X16427Y-7722D01*
X18543Y-9133D02*
X16430Y-7725D01*
X18375Y-10876D02*
X18543Y-10708D01*
X18285Y-10876D02*
X18375Y-10876D01*
X18231Y-10891D02*
X18218Y-10906D01*
X18266Y-10876D02*
X18231Y-10891D01*
X18285Y-10876D02*
X18266Y-10876D01*
X18008Y-11143D02*
X18218Y-10906D01*
X17995Y-11162D02*
X17992Y-11169D01*
X18003Y-11149D02*
X17995Y-11162D01*
X18008Y-11143D02*
X18003Y-11149D01*
X17909Y-11369D02*
X17992Y-11169D01*
X17909Y-11369D02*
X17909Y-11369D01*
X17905Y-11378D02*
X17909Y-11369D01*
X17898Y-11404D02*
X17898Y-11412D01*
X17902Y-11386D02*
X17898Y-11404D01*
X17905Y-11378D02*
X17902Y-11386D01*
X17898Y-11639D02*
X17898Y-11412D01*
X17899Y-11648D02*
X17899Y-11651D01*
X17898Y-11642D02*
X17899Y-11648D01*
X17898Y-11639D02*
X17898Y-11642D01*
X18350Y-14921D02*
X17899Y-11651D01*
X10651Y-11141D02*
X9240Y-10854D01*
M02*
