G04 (created by PCBNEW (2013-jul-07)-stable) date jeu. 07 mai 2020 19:37:15 IST*
%MOIN*%
G04 Gerber Fmt 3.4, Leading zero omitted, Abs format*
%FSLAX34Y34*%
G01*
G70*
G90*
G04 APERTURE LIST*
%ADD10C,0.00590551*%
%ADD11C,0.00472441*%
%ADD12C,0.00787402*%
%ADD13C,0.012*%
%ADD14C,0.005*%
%ADD15C,0.01*%
%ADD16C,0.006*%
%ADD17C,0.00511811*%
%ADD18C,0.008*%
%ADD19C,0.0075*%
%ADD20C,0.0019685*%
G04 APERTURE END LIST*
G54D10*
G54D11*
X531Y-938D02*
X544Y-925D01*
X583Y-898D01*
X610Y-885D01*
X649Y-872D01*
X715Y-859D01*
X767Y-859D01*
X833Y-872D01*
X872Y-885D01*
X898Y-898D01*
X938Y-925D01*
X951Y-938D01*
X649Y-1161D02*
X636Y-1135D01*
X636Y-1082D01*
X649Y-1056D01*
X662Y-1043D01*
X688Y-1030D01*
X767Y-1030D01*
X793Y-1043D01*
X807Y-1056D01*
X820Y-1082D01*
X820Y-1135D01*
X807Y-1161D01*
X649Y-1397D02*
X636Y-1371D01*
X636Y-1318D01*
X649Y-1292D01*
X662Y-1279D01*
X688Y-1266D01*
X767Y-1266D01*
X793Y-1279D01*
X807Y-1292D01*
X820Y-1318D01*
X820Y-1371D01*
X807Y-1397D01*
X531Y-1489D02*
X544Y-1502D01*
X583Y-1528D01*
X610Y-1541D01*
X649Y-1555D01*
X715Y-1568D01*
X767Y-1568D01*
X833Y-1555D01*
X872Y-1541D01*
X898Y-1528D01*
X938Y-1502D01*
X951Y-1489D01*
X780Y-2001D02*
X767Y-2040D01*
X754Y-2053D01*
X728Y-2066D01*
X688Y-2066D01*
X662Y-2053D01*
X649Y-2040D01*
X636Y-2014D01*
X636Y-1909D01*
X912Y-1909D01*
X912Y-2001D01*
X898Y-2027D01*
X885Y-2040D01*
X859Y-2053D01*
X833Y-2053D01*
X807Y-2040D01*
X793Y-2027D01*
X780Y-2001D01*
X780Y-1909D01*
X767Y-2237D02*
X636Y-2237D01*
X912Y-2145D02*
X767Y-2237D01*
X912Y-2329D01*
X741Y-2421D02*
X741Y-2631D01*
X636Y-2762D02*
X912Y-2762D01*
X636Y-2919D01*
X912Y-2919D01*
X662Y-3208D02*
X649Y-3195D01*
X636Y-3156D01*
X636Y-3129D01*
X649Y-3090D01*
X675Y-3064D01*
X702Y-3051D01*
X754Y-3038D01*
X793Y-3038D01*
X846Y-3051D01*
X872Y-3064D01*
X898Y-3090D01*
X912Y-3129D01*
X912Y-3156D01*
X898Y-3195D01*
X885Y-3208D01*
X741Y-3326D02*
X741Y-3536D01*
X649Y-3654D02*
X636Y-3694D01*
X636Y-3759D01*
X649Y-3786D01*
X662Y-3799D01*
X688Y-3812D01*
X715Y-3812D01*
X741Y-3799D01*
X754Y-3786D01*
X767Y-3759D01*
X780Y-3707D01*
X793Y-3681D01*
X807Y-3667D01*
X833Y-3654D01*
X859Y-3654D01*
X885Y-3667D01*
X898Y-3681D01*
X912Y-3707D01*
X912Y-3772D01*
X898Y-3812D01*
X715Y-3917D02*
X715Y-4048D01*
X636Y-3891D02*
X912Y-3982D01*
X636Y-4074D01*
X741Y-4376D02*
X741Y-4586D01*
X636Y-4927D02*
X912Y-4927D01*
X636Y-5085D01*
X912Y-5085D01*
X636Y-5216D02*
X820Y-5216D01*
X912Y-5216D02*
X898Y-5203D01*
X885Y-5216D01*
X898Y-5229D01*
X912Y-5216D01*
X885Y-5216D01*
X649Y-5465D02*
X636Y-5439D01*
X636Y-5387D01*
X649Y-5360D01*
X662Y-5347D01*
X688Y-5334D01*
X767Y-5334D01*
X793Y-5347D01*
X807Y-5360D01*
X820Y-5387D01*
X820Y-5439D01*
X807Y-5465D01*
X636Y-5623D02*
X649Y-5597D01*
X662Y-5583D01*
X688Y-5570D01*
X767Y-5570D01*
X793Y-5583D01*
X807Y-5597D01*
X820Y-5623D01*
X820Y-5662D01*
X807Y-5688D01*
X793Y-5702D01*
X767Y-5715D01*
X688Y-5715D01*
X662Y-5702D01*
X649Y-5688D01*
X636Y-5662D01*
X636Y-5623D01*
X636Y-5872D02*
X649Y-5846D01*
X675Y-5833D01*
X912Y-5833D01*
X636Y-6095D02*
X780Y-6095D01*
X807Y-6082D01*
X820Y-6056D01*
X820Y-6003D01*
X807Y-5977D01*
X649Y-6095D02*
X636Y-6069D01*
X636Y-6003D01*
X649Y-5977D01*
X675Y-5964D01*
X702Y-5964D01*
X728Y-5977D01*
X741Y-6003D01*
X741Y-6069D01*
X754Y-6095D01*
X649Y-6213D02*
X636Y-6240D01*
X636Y-6292D01*
X649Y-6318D01*
X675Y-6332D01*
X688Y-6332D01*
X715Y-6318D01*
X728Y-6292D01*
X728Y-6253D01*
X741Y-6227D01*
X767Y-6213D01*
X780Y-6213D01*
X807Y-6227D01*
X820Y-6253D01*
X820Y-6292D01*
X807Y-6318D01*
X715Y-6646D02*
X715Y-6778D01*
X636Y-6620D02*
X912Y-6712D01*
X636Y-6804D01*
X898Y-7040D02*
X912Y-7014D01*
X912Y-6975D01*
X898Y-6935D01*
X872Y-6909D01*
X846Y-6896D01*
X793Y-6883D01*
X754Y-6883D01*
X702Y-6896D01*
X675Y-6909D01*
X649Y-6935D01*
X636Y-6975D01*
X636Y-7001D01*
X649Y-7040D01*
X662Y-7053D01*
X754Y-7053D01*
X754Y-7001D01*
X636Y-7171D02*
X912Y-7171D01*
X912Y-7303D02*
X688Y-7303D01*
X662Y-7316D01*
X649Y-7329D01*
X636Y-7355D01*
X636Y-7408D01*
X649Y-7434D01*
X662Y-7447D01*
X688Y-7460D01*
X912Y-7460D01*
X649Y-7578D02*
X636Y-7618D01*
X636Y-7683D01*
X649Y-7709D01*
X662Y-7723D01*
X688Y-7736D01*
X715Y-7736D01*
X741Y-7723D01*
X754Y-7709D01*
X767Y-7683D01*
X780Y-7631D01*
X793Y-7604D01*
X807Y-7591D01*
X833Y-7578D01*
X859Y-7578D01*
X885Y-7591D01*
X898Y-7604D01*
X912Y-7631D01*
X912Y-7696D01*
X898Y-7736D01*
X741Y-8064D02*
X741Y-8274D01*
X885Y-8602D02*
X898Y-8615D01*
X912Y-8641D01*
X912Y-8707D01*
X898Y-8733D01*
X885Y-8746D01*
X859Y-8759D01*
X833Y-8759D01*
X793Y-8746D01*
X636Y-8589D01*
X636Y-8759D01*
X912Y-8930D02*
X912Y-8956D01*
X898Y-8982D01*
X885Y-8996D01*
X859Y-9009D01*
X807Y-9022D01*
X741Y-9022D01*
X688Y-9009D01*
X662Y-8996D01*
X649Y-8982D01*
X636Y-8956D01*
X636Y-8930D01*
X649Y-8904D01*
X662Y-8891D01*
X688Y-8877D01*
X741Y-8864D01*
X807Y-8864D01*
X859Y-8877D01*
X885Y-8891D01*
X898Y-8904D01*
X912Y-8930D01*
X885Y-9127D02*
X898Y-9140D01*
X912Y-9166D01*
X912Y-9232D01*
X898Y-9258D01*
X885Y-9271D01*
X859Y-9284D01*
X833Y-9284D01*
X793Y-9271D01*
X636Y-9114D01*
X636Y-9284D01*
X912Y-9455D02*
X912Y-9481D01*
X898Y-9507D01*
X885Y-9520D01*
X859Y-9534D01*
X807Y-9547D01*
X741Y-9547D01*
X688Y-9534D01*
X662Y-9520D01*
X649Y-9507D01*
X636Y-9481D01*
X636Y-9455D01*
X649Y-9429D01*
X662Y-9416D01*
X688Y-9402D01*
X741Y-9389D01*
X807Y-9389D01*
X859Y-9402D01*
X885Y-9416D01*
X898Y-9429D01*
X912Y-9455D01*
G54D12*
X16181Y-1456D02*
X17086Y-1456D01*
X16220Y-3779D02*
X17086Y-3779D01*
X15316Y-3938D02*
X15185Y-3751D01*
X15091Y-3938D02*
X15091Y-3545D01*
X15241Y-3545D01*
X15279Y-3563D01*
X15298Y-3582D01*
X15316Y-3620D01*
X15316Y-3676D01*
X15298Y-3713D01*
X15279Y-3732D01*
X15241Y-3751D01*
X15091Y-3751D01*
X15654Y-3676D02*
X15654Y-3938D01*
X15485Y-3676D02*
X15485Y-3882D01*
X15504Y-3920D01*
X15541Y-3938D01*
X15598Y-3938D01*
X15635Y-3920D01*
X15654Y-3901D01*
X15841Y-3676D02*
X15841Y-3938D01*
X15841Y-3713D02*
X15860Y-3695D01*
X15898Y-3676D01*
X15954Y-3676D01*
X15991Y-3695D01*
X16010Y-3732D01*
X16010Y-3938D01*
X14752Y-1409D02*
X14621Y-1409D01*
X14621Y-1616D02*
X14621Y-1222D01*
X14808Y-1222D01*
X15014Y-1616D02*
X14977Y-1597D01*
X14958Y-1559D01*
X14958Y-1222D01*
X15333Y-1616D02*
X15333Y-1409D01*
X15314Y-1372D01*
X15277Y-1353D01*
X15202Y-1353D01*
X15164Y-1372D01*
X15333Y-1597D02*
X15296Y-1616D01*
X15202Y-1616D01*
X15164Y-1597D01*
X15146Y-1559D01*
X15146Y-1522D01*
X15164Y-1484D01*
X15202Y-1466D01*
X15296Y-1466D01*
X15333Y-1447D01*
X15502Y-1597D02*
X15539Y-1616D01*
X15614Y-1616D01*
X15652Y-1597D01*
X15671Y-1559D01*
X15671Y-1541D01*
X15652Y-1503D01*
X15614Y-1484D01*
X15558Y-1484D01*
X15521Y-1466D01*
X15502Y-1428D01*
X15502Y-1409D01*
X15521Y-1372D01*
X15558Y-1353D01*
X15614Y-1353D01*
X15652Y-1372D01*
X15839Y-1616D02*
X15839Y-1222D01*
X16008Y-1616D02*
X16008Y-1409D01*
X15989Y-1372D01*
X15952Y-1353D01*
X15896Y-1353D01*
X15858Y-1372D01*
X15839Y-1391D01*
X18503Y-12874D02*
X18503Y-12244D01*
X16062Y-7086D02*
X16299Y-7086D01*
X16062Y-7637D02*
X16062Y-7086D01*
X18543Y-7086D02*
X18346Y-7086D01*
X18543Y-7637D02*
X18543Y-7086D01*
X16062Y-12204D02*
X16062Y-12874D01*
X16544Y-7227D02*
X16601Y-7245D01*
X16694Y-7245D01*
X16732Y-7227D01*
X16751Y-7208D01*
X16769Y-7170D01*
X16769Y-7133D01*
X16751Y-7095D01*
X16732Y-7077D01*
X16694Y-7058D01*
X16619Y-7039D01*
X16582Y-7020D01*
X16563Y-7002D01*
X16544Y-6964D01*
X16544Y-6927D01*
X16563Y-6889D01*
X16582Y-6871D01*
X16619Y-6852D01*
X16713Y-6852D01*
X16769Y-6871D01*
X17088Y-7227D02*
X17050Y-7245D01*
X16976Y-7245D01*
X16938Y-7227D01*
X16919Y-7189D01*
X16919Y-7039D01*
X16938Y-7002D01*
X16976Y-6983D01*
X17050Y-6983D01*
X17088Y-7002D01*
X17107Y-7039D01*
X17107Y-7077D01*
X16919Y-7114D01*
X17275Y-7245D02*
X17275Y-6983D01*
X17275Y-7058D02*
X17294Y-7020D01*
X17313Y-7002D01*
X17350Y-6983D01*
X17388Y-6983D01*
X17519Y-7245D02*
X17519Y-6983D01*
X17519Y-6852D02*
X17500Y-6871D01*
X17519Y-6889D01*
X17538Y-6871D01*
X17519Y-6852D01*
X17519Y-6889D01*
X17875Y-7245D02*
X17875Y-7039D01*
X17857Y-7002D01*
X17819Y-6983D01*
X17744Y-6983D01*
X17707Y-7002D01*
X17875Y-7227D02*
X17838Y-7245D01*
X17744Y-7245D01*
X17707Y-7227D01*
X17688Y-7189D01*
X17688Y-7152D01*
X17707Y-7114D01*
X17744Y-7095D01*
X17838Y-7095D01*
X17875Y-7077D01*
X18119Y-7245D02*
X18082Y-7227D01*
X18063Y-7189D01*
X18063Y-6852D01*
X18308Y-13545D02*
X18177Y-13357D01*
X18083Y-13545D02*
X18083Y-13151D01*
X18233Y-13151D01*
X18271Y-13170D01*
X18290Y-13188D01*
X18308Y-13226D01*
X18308Y-13282D01*
X18290Y-13320D01*
X18271Y-13338D01*
X18233Y-13357D01*
X18083Y-13357D01*
X18440Y-13545D02*
X18646Y-13282D01*
X18440Y-13282D02*
X18646Y-13545D01*
X15948Y-13151D02*
X16173Y-13151D01*
X16061Y-13545D02*
X16061Y-13151D01*
X16267Y-13545D02*
X16473Y-13282D01*
X16267Y-13282D02*
X16473Y-13545D01*
X18215Y-13781D02*
X18458Y-13781D01*
X18327Y-13931D01*
X18383Y-13931D01*
X18421Y-13950D01*
X18440Y-13968D01*
X18458Y-14006D01*
X18458Y-14100D01*
X18440Y-14137D01*
X18421Y-14156D01*
X18383Y-14175D01*
X18271Y-14175D01*
X18233Y-14156D01*
X18215Y-14137D01*
X17249Y-13818D02*
X17268Y-13800D01*
X17305Y-13781D01*
X17399Y-13781D01*
X17437Y-13800D01*
X17455Y-13818D01*
X17474Y-13856D01*
X17474Y-13893D01*
X17455Y-13950D01*
X17230Y-14175D01*
X17474Y-14175D01*
X16451Y-14175D02*
X16226Y-14175D01*
X16338Y-14175D02*
X16338Y-13781D01*
X16301Y-13837D01*
X16263Y-13875D01*
X16226Y-13893D01*
X15335Y-13781D02*
X15373Y-13781D01*
X15410Y-13800D01*
X15429Y-13818D01*
X15448Y-13856D01*
X15466Y-13931D01*
X15466Y-14025D01*
X15448Y-14100D01*
X15429Y-14137D01*
X15410Y-14156D01*
X15373Y-14175D01*
X15335Y-14175D01*
X15298Y-14156D01*
X15279Y-14137D01*
X15260Y-14100D01*
X15241Y-14025D01*
X15241Y-13931D01*
X15260Y-13856D01*
X15279Y-13818D01*
X15298Y-13800D01*
X15335Y-13781D01*
X13188Y-13800D02*
X13151Y-13781D01*
X13095Y-13781D01*
X13038Y-13800D01*
X13001Y-13837D01*
X12982Y-13875D01*
X12964Y-13950D01*
X12964Y-14006D01*
X12982Y-14081D01*
X13001Y-14118D01*
X13038Y-14156D01*
X13095Y-14175D01*
X13132Y-14175D01*
X13188Y-14156D01*
X13207Y-14137D01*
X13207Y-14006D01*
X13132Y-14006D01*
X13376Y-14175D02*
X13376Y-13781D01*
X13526Y-13781D01*
X13563Y-13800D01*
X13582Y-13818D01*
X13601Y-13856D01*
X13601Y-13912D01*
X13582Y-13950D01*
X13563Y-13968D01*
X13526Y-13987D01*
X13376Y-13987D01*
X13770Y-14175D02*
X13770Y-13781D01*
X14032Y-13781D02*
X14107Y-13781D01*
X14145Y-13800D01*
X14182Y-13837D01*
X14201Y-13912D01*
X14201Y-14043D01*
X14182Y-14118D01*
X14145Y-14156D01*
X14107Y-14175D01*
X14032Y-14175D01*
X13995Y-14156D01*
X13957Y-14118D01*
X13938Y-14043D01*
X13938Y-13912D01*
X13957Y-13837D01*
X13995Y-13800D01*
X14032Y-13781D01*
X9566Y-14025D02*
X9866Y-14025D01*
X9716Y-14175D02*
X9716Y-13875D01*
X10016Y-13781D02*
X10260Y-13781D01*
X10129Y-13931D01*
X10185Y-13931D01*
X10223Y-13950D01*
X10241Y-13968D01*
X10260Y-14006D01*
X10260Y-14100D01*
X10241Y-14137D01*
X10223Y-14156D01*
X10185Y-14175D01*
X10073Y-14175D01*
X10035Y-14156D01*
X10016Y-14137D01*
X10429Y-14137D02*
X10448Y-14156D01*
X10429Y-14175D01*
X10410Y-14156D01*
X10429Y-14137D01*
X10429Y-14175D01*
X10579Y-13781D02*
X10823Y-13781D01*
X10691Y-13931D01*
X10748Y-13931D01*
X10785Y-13950D01*
X10804Y-13968D01*
X10823Y-14006D01*
X10823Y-14100D01*
X10804Y-14137D01*
X10785Y-14156D01*
X10748Y-14175D01*
X10635Y-14175D01*
X10598Y-14156D01*
X10579Y-14137D01*
X10935Y-13781D02*
X11066Y-14175D01*
X11197Y-13781D01*
X5989Y-14025D02*
X6289Y-14025D01*
X6139Y-14175D02*
X6139Y-13875D01*
X6664Y-13781D02*
X6477Y-13781D01*
X6458Y-13968D01*
X6477Y-13950D01*
X6514Y-13931D01*
X6608Y-13931D01*
X6646Y-13950D01*
X6664Y-13968D01*
X6683Y-14006D01*
X6683Y-14100D01*
X6664Y-14137D01*
X6646Y-14156D01*
X6608Y-14175D01*
X6514Y-14175D01*
X6477Y-14156D01*
X6458Y-14137D01*
X6796Y-13781D02*
X6927Y-14175D01*
X7058Y-13781D01*
X8361Y-13800D02*
X8323Y-13781D01*
X8267Y-13781D01*
X8211Y-13800D01*
X8173Y-13837D01*
X8155Y-13875D01*
X8136Y-13950D01*
X8136Y-14006D01*
X8155Y-14081D01*
X8173Y-14118D01*
X8211Y-14156D01*
X8267Y-14175D01*
X8305Y-14175D01*
X8361Y-14156D01*
X8380Y-14137D01*
X8380Y-14006D01*
X8305Y-14006D01*
X8548Y-14175D02*
X8548Y-13781D01*
X8773Y-14175D01*
X8773Y-13781D01*
X8961Y-14175D02*
X8961Y-13781D01*
X9055Y-13781D01*
X9111Y-13800D01*
X9148Y-13837D01*
X9167Y-13875D01*
X9186Y-13950D01*
X9186Y-14006D01*
X9167Y-14081D01*
X9148Y-14118D01*
X9111Y-14156D01*
X9055Y-14175D01*
X8961Y-14175D01*
X4424Y-13800D02*
X4386Y-13781D01*
X4330Y-13781D01*
X4274Y-13800D01*
X4236Y-13837D01*
X4218Y-13875D01*
X4199Y-13950D01*
X4199Y-14006D01*
X4218Y-14081D01*
X4236Y-14118D01*
X4274Y-14156D01*
X4330Y-14175D01*
X4368Y-14175D01*
X4424Y-14156D01*
X4443Y-14137D01*
X4443Y-14006D01*
X4368Y-14006D01*
X4611Y-14175D02*
X4611Y-13781D01*
X4836Y-14175D01*
X4836Y-13781D01*
X5024Y-14175D02*
X5024Y-13781D01*
X5118Y-13781D01*
X5174Y-13800D01*
X5211Y-13837D01*
X5230Y-13875D01*
X5249Y-13950D01*
X5249Y-14006D01*
X5230Y-14081D01*
X5211Y-14118D01*
X5174Y-14156D01*
X5118Y-14175D01*
X5024Y-14175D01*
X4900Y-6931D02*
X4769Y-6743D01*
X4675Y-6931D02*
X4675Y-6537D01*
X4825Y-6537D01*
X4863Y-6556D01*
X4881Y-6574D01*
X4900Y-6612D01*
X4900Y-6668D01*
X4881Y-6706D01*
X4863Y-6724D01*
X4825Y-6743D01*
X4675Y-6743D01*
X5069Y-6724D02*
X5200Y-6724D01*
X5256Y-6931D02*
X5069Y-6931D01*
X5069Y-6537D01*
X5256Y-6537D01*
X5406Y-6912D02*
X5463Y-6931D01*
X5556Y-6931D01*
X5594Y-6912D01*
X5613Y-6893D01*
X5631Y-6856D01*
X5631Y-6818D01*
X5613Y-6781D01*
X5594Y-6762D01*
X5556Y-6743D01*
X5481Y-6724D01*
X5444Y-6706D01*
X5425Y-6687D01*
X5406Y-6649D01*
X5406Y-6612D01*
X5425Y-6574D01*
X5444Y-6556D01*
X5481Y-6537D01*
X5575Y-6537D01*
X5631Y-6556D01*
X5800Y-6724D02*
X5931Y-6724D01*
X5988Y-6931D02*
X5800Y-6931D01*
X5800Y-6537D01*
X5988Y-6537D01*
X6100Y-6537D02*
X6325Y-6537D01*
X6212Y-6931D02*
X6212Y-6537D01*
X1661Y-851D02*
X1661Y-982D01*
X1454Y-1038D02*
X1454Y-851D01*
X1848Y-851D01*
X1848Y-1038D01*
X1473Y-1188D02*
X1454Y-1244D01*
X1454Y-1338D01*
X1473Y-1376D01*
X1492Y-1394D01*
X1529Y-1413D01*
X1567Y-1413D01*
X1604Y-1394D01*
X1623Y-1376D01*
X1642Y-1338D01*
X1661Y-1263D01*
X1679Y-1226D01*
X1698Y-1207D01*
X1736Y-1188D01*
X1773Y-1188D01*
X1811Y-1207D01*
X1829Y-1226D01*
X1848Y-1263D01*
X1848Y-1357D01*
X1829Y-1413D01*
X1454Y-1582D02*
X1848Y-1582D01*
X1848Y-1732D01*
X1829Y-1769D01*
X1811Y-1788D01*
X1773Y-1807D01*
X1717Y-1807D01*
X1679Y-1788D01*
X1661Y-1769D01*
X1642Y-1732D01*
X1642Y-1582D01*
X1454Y-1976D02*
X1717Y-1976D01*
X1848Y-1976D02*
X1829Y-1957D01*
X1811Y-1976D01*
X1829Y-1994D01*
X1848Y-1976D01*
X1811Y-1976D01*
X1604Y-2163D02*
X1604Y-2463D01*
X1661Y-2782D02*
X1661Y-2650D01*
X1454Y-2650D02*
X1848Y-2650D01*
X1848Y-2838D01*
X1454Y-3044D02*
X1473Y-3007D01*
X1511Y-2988D01*
X1848Y-2988D01*
X1454Y-3363D02*
X1661Y-3363D01*
X1698Y-3344D01*
X1717Y-3307D01*
X1717Y-3232D01*
X1698Y-3194D01*
X1473Y-3363D02*
X1454Y-3325D01*
X1454Y-3232D01*
X1473Y-3194D01*
X1511Y-3175D01*
X1548Y-3175D01*
X1586Y-3194D01*
X1604Y-3232D01*
X1604Y-3325D01*
X1623Y-3363D01*
X1473Y-3532D02*
X1454Y-3569D01*
X1454Y-3644D01*
X1473Y-3682D01*
X1511Y-3700D01*
X1529Y-3700D01*
X1567Y-3682D01*
X1586Y-3644D01*
X1586Y-3588D01*
X1604Y-3550D01*
X1642Y-3532D01*
X1661Y-3532D01*
X1698Y-3550D01*
X1717Y-3588D01*
X1717Y-3644D01*
X1698Y-3682D01*
X1454Y-3869D02*
X1848Y-3869D01*
X1454Y-4038D02*
X1661Y-4038D01*
X1698Y-4019D01*
X1717Y-3982D01*
X1717Y-3925D01*
X1698Y-3888D01*
X1679Y-3869D01*
X1473Y-4375D02*
X1454Y-4338D01*
X1454Y-4263D01*
X1473Y-4225D01*
X1511Y-4206D01*
X1661Y-4206D01*
X1698Y-4225D01*
X1717Y-4263D01*
X1717Y-4338D01*
X1698Y-4375D01*
X1661Y-4394D01*
X1623Y-4394D01*
X1586Y-4206D01*
X1454Y-4563D02*
X1717Y-4563D01*
X1642Y-4563D02*
X1679Y-4581D01*
X1698Y-4600D01*
X1717Y-4638D01*
X1717Y-4675D01*
X1717Y-5069D02*
X1454Y-5163D01*
X1717Y-5256D01*
X1454Y-5613D02*
X1454Y-5388D01*
X1454Y-5500D02*
X1848Y-5500D01*
X1792Y-5463D01*
X1754Y-5425D01*
X1736Y-5388D01*
X1492Y-5781D02*
X1473Y-5800D01*
X1454Y-5781D01*
X1473Y-5763D01*
X1492Y-5781D01*
X1454Y-5781D01*
X1848Y-6044D02*
X1848Y-6081D01*
X1829Y-6119D01*
X1811Y-6137D01*
X1773Y-6156D01*
X1698Y-6175D01*
X1604Y-6175D01*
X1529Y-6156D01*
X1492Y-6137D01*
X1473Y-6119D01*
X1454Y-6081D01*
X1454Y-6044D01*
X1473Y-6006D01*
X1492Y-5988D01*
X1529Y-5969D01*
X1604Y-5950D01*
X1698Y-5950D01*
X1773Y-5969D01*
X1811Y-5988D01*
X1829Y-6006D01*
X1848Y-6044D01*
X9960Y-8149D02*
X9960Y-12559D01*
X2677Y-8149D02*
X9960Y-8149D01*
X2677Y-12559D02*
X2677Y-8149D01*
X9960Y-12559D02*
X2677Y-12559D01*
X3676Y-10386D02*
X3807Y-10386D01*
X3863Y-10592D02*
X3676Y-10592D01*
X3676Y-10198D01*
X3863Y-10198D01*
X4013Y-10573D02*
X4070Y-10592D01*
X4163Y-10592D01*
X4201Y-10573D01*
X4220Y-10554D01*
X4238Y-10517D01*
X4238Y-10479D01*
X4220Y-10442D01*
X4201Y-10423D01*
X4163Y-10404D01*
X4088Y-10386D01*
X4051Y-10367D01*
X4032Y-10348D01*
X4013Y-10311D01*
X4013Y-10273D01*
X4032Y-10236D01*
X4051Y-10217D01*
X4088Y-10198D01*
X4182Y-10198D01*
X4238Y-10217D01*
X4407Y-10592D02*
X4407Y-10198D01*
X4557Y-10198D01*
X4595Y-10217D01*
X4613Y-10236D01*
X4632Y-10273D01*
X4632Y-10329D01*
X4613Y-10367D01*
X4595Y-10386D01*
X4557Y-10404D01*
X4407Y-10404D01*
X4801Y-10442D02*
X5101Y-10442D01*
X5363Y-10198D02*
X5401Y-10198D01*
X5438Y-10217D01*
X5457Y-10236D01*
X5476Y-10273D01*
X5494Y-10348D01*
X5494Y-10442D01*
X5476Y-10517D01*
X5457Y-10554D01*
X5438Y-10573D01*
X5401Y-10592D01*
X5363Y-10592D01*
X5326Y-10573D01*
X5307Y-10554D01*
X5288Y-10517D01*
X5269Y-10442D01*
X5269Y-10348D01*
X5288Y-10273D01*
X5307Y-10236D01*
X5326Y-10217D01*
X5363Y-10198D01*
X5869Y-10592D02*
X5644Y-10592D01*
X5757Y-10592D02*
X5757Y-10198D01*
X5719Y-10254D01*
X5682Y-10292D01*
X5644Y-10311D01*
G54D13*
X456Y-15452D02*
X456Y-10452D01*
X456Y-10452D02*
X2456Y-10452D01*
X2456Y-10452D02*
X2456Y-15452D01*
X2456Y-15452D02*
X456Y-15452D01*
X7740Y-12354D02*
X7740Y-8354D01*
X7740Y-8354D02*
X9740Y-8354D01*
X9740Y-8354D02*
X9740Y-12354D01*
X9740Y-12354D02*
X7740Y-12354D01*
G54D14*
X13253Y-4098D02*
X14003Y-4098D01*
X14003Y-4098D02*
X14003Y-1098D01*
X14003Y-1098D02*
X13003Y-1098D01*
X13003Y-1098D02*
X13003Y-4098D01*
X13003Y-4098D02*
X13253Y-4098D01*
X13503Y-4348D02*
X13503Y-4098D01*
X13503Y-1098D02*
X13503Y-848D01*
X13253Y-4098D02*
X13003Y-3848D01*
X13901Y-11391D02*
X13901Y-10641D01*
X13901Y-10641D02*
X10901Y-10641D01*
X10901Y-10641D02*
X10901Y-11641D01*
X10901Y-11641D02*
X13901Y-11641D01*
X13901Y-11641D02*
X13901Y-11391D01*
X14151Y-11141D02*
X13901Y-11141D01*
X10901Y-11141D02*
X10651Y-11141D01*
X13901Y-11391D02*
X13651Y-11641D01*
X13901Y-9777D02*
X13901Y-9027D01*
X13901Y-9027D02*
X10901Y-9027D01*
X10901Y-9027D02*
X10901Y-10027D01*
X10901Y-10027D02*
X13901Y-10027D01*
X13901Y-10027D02*
X13901Y-9777D01*
X14151Y-9527D02*
X13901Y-9527D01*
X10901Y-9527D02*
X10651Y-9527D01*
X13901Y-9777D02*
X13651Y-10027D01*
X12694Y-6732D02*
G75*
G03X12694Y-6732I-1001J0D01*
G74*
G01*
G54D15*
X18850Y-15421D02*
X14850Y-15421D01*
X18850Y-14421D02*
X14850Y-14421D01*
X14850Y-14421D02*
X14850Y-15421D01*
X18850Y-15421D02*
X18850Y-14421D01*
G54D16*
X6748Y-14460D02*
X6748Y-15460D01*
X6748Y-15460D02*
X4748Y-15460D01*
X4748Y-15460D02*
X4748Y-14460D01*
X4748Y-14460D02*
X6748Y-14460D01*
X10685Y-14460D02*
X10685Y-15460D01*
X10685Y-15460D02*
X8685Y-15460D01*
X8685Y-15460D02*
X8685Y-14460D01*
X8685Y-14460D02*
X10685Y-14460D01*
X8511Y-307D02*
X8511Y-6307D01*
X8511Y-6307D02*
X2511Y-6307D01*
X2511Y-6307D02*
X2511Y-307D01*
X2511Y-307D02*
X8511Y-307D01*
G54D14*
X19055Y-11614D02*
X19389Y-11614D01*
X19389Y-11614D02*
X19389Y-8228D01*
X19389Y-8228D02*
X19094Y-8228D01*
X17992Y-8228D02*
X17696Y-8228D01*
X17696Y-8228D02*
X17696Y-11614D01*
X17696Y-11614D02*
X17992Y-11614D01*
G54D12*
X18562Y-12224D02*
G75*
G03X18562Y-12224I-39J0D01*
G74*
G01*
G54D14*
X16574Y-11574D02*
X16909Y-11574D01*
X16909Y-11574D02*
X16909Y-8188D01*
X16909Y-8188D02*
X16614Y-8188D01*
X15511Y-8188D02*
X15216Y-8188D01*
X15216Y-8188D02*
X15216Y-11574D01*
X15216Y-11574D02*
X15511Y-11574D01*
G54D12*
X16082Y-12185D02*
G75*
G03X16082Y-12185I-39J0D01*
G74*
G01*
G54D14*
X19055Y-4330D02*
X19389Y-4330D01*
X19389Y-4330D02*
X19389Y-944D01*
X19389Y-944D02*
X19094Y-944D01*
X17992Y-944D02*
X17696Y-944D01*
X17696Y-944D02*
X17696Y-4330D01*
X17696Y-4330D02*
X17992Y-4330D01*
G54D12*
X18562Y-4940D02*
G75*
G03X18562Y-4940I-39J0D01*
G74*
G01*
G54D14*
X12061Y-1098D02*
X11311Y-1098D01*
X11311Y-1098D02*
X11311Y-4098D01*
X11311Y-4098D02*
X12311Y-4098D01*
X12311Y-4098D02*
X12311Y-1098D01*
X12311Y-1098D02*
X12061Y-1098D01*
X11811Y-848D02*
X11811Y-1098D01*
X11811Y-4098D02*
X11811Y-4348D01*
X12061Y-1098D02*
X12311Y-1348D01*
G54D13*
X9657Y-3617D02*
X9657Y-1637D01*
X9657Y-1637D02*
X10657Y-1637D01*
X10657Y-1637D02*
X10657Y-3637D01*
X10657Y-3637D02*
X9657Y-3637D01*
X9907Y-3637D02*
X9657Y-3387D01*
G54D17*
X2799Y-15088D02*
X2799Y-14773D01*
X2919Y-14773D01*
X2949Y-14788D01*
X2964Y-14803D01*
X2979Y-14833D01*
X2979Y-14878D01*
X2964Y-14908D01*
X2949Y-14923D01*
X2919Y-14938D01*
X2799Y-14938D01*
X3278Y-15088D02*
X3098Y-15088D01*
X3188Y-15088D02*
X3188Y-14773D01*
X3158Y-14818D01*
X3128Y-14848D01*
X3098Y-14863D01*
G54D18*
G54D16*
X13706Y-2665D02*
X13468Y-2798D01*
X13706Y-2893D02*
X13206Y-2893D01*
X13206Y-2741D01*
X13230Y-2703D01*
X13253Y-2684D01*
X13301Y-2665D01*
X13372Y-2665D01*
X13420Y-2684D01*
X13444Y-2703D01*
X13468Y-2741D01*
X13468Y-2893D01*
X13706Y-2284D02*
X13706Y-2512D01*
X13706Y-2398D02*
X13206Y-2398D01*
X13277Y-2436D01*
X13325Y-2474D01*
X13349Y-2512D01*
X12334Y-11344D02*
X12201Y-11106D01*
X12106Y-11344D02*
X12106Y-10844D01*
X12258Y-10844D01*
X12296Y-10867D01*
X12315Y-10891D01*
X12334Y-10939D01*
X12334Y-11010D01*
X12315Y-11058D01*
X12296Y-11082D01*
X12258Y-11106D01*
X12106Y-11106D01*
X12487Y-10891D02*
X12506Y-10867D01*
X12544Y-10844D01*
X12639Y-10844D01*
X12677Y-10867D01*
X12696Y-10891D01*
X12715Y-10939D01*
X12715Y-10986D01*
X12696Y-11058D01*
X12468Y-11344D01*
X12715Y-11344D01*
X12334Y-9729D02*
X12201Y-9491D01*
X12106Y-9729D02*
X12106Y-9229D01*
X12258Y-9229D01*
X12296Y-9253D01*
X12315Y-9277D01*
X12334Y-9325D01*
X12334Y-9396D01*
X12315Y-9444D01*
X12296Y-9468D01*
X12258Y-9491D01*
X12106Y-9491D01*
X12468Y-9229D02*
X12715Y-9229D01*
X12582Y-9420D01*
X12639Y-9420D01*
X12677Y-9444D01*
X12696Y-9468D01*
X12715Y-9515D01*
X12715Y-9634D01*
X12696Y-9682D01*
X12677Y-9706D01*
X12639Y-9729D01*
X12525Y-9729D01*
X12487Y-9706D01*
X12468Y-9682D01*
G54D17*
X10451Y-6784D02*
X10466Y-6799D01*
X10481Y-6844D01*
X10481Y-6874D01*
X10466Y-6919D01*
X10436Y-6949D01*
X10406Y-6964D01*
X10346Y-6979D01*
X10301Y-6979D01*
X10241Y-6964D01*
X10211Y-6949D01*
X10181Y-6919D01*
X10166Y-6874D01*
X10166Y-6844D01*
X10181Y-6799D01*
X10196Y-6784D01*
X10481Y-6484D02*
X10481Y-6664D01*
X10481Y-6574D02*
X10166Y-6574D01*
X10211Y-6604D01*
X10241Y-6634D01*
X10256Y-6664D01*
G54D14*
G54D19*
X11700Y-8106D02*
X11700Y-7877D01*
X11814Y-7992D02*
X11585Y-7992D01*
G54D18*
G54D17*
X14058Y-15048D02*
X14058Y-14733D01*
X14178Y-14733D01*
X14208Y-14748D01*
X14223Y-14763D01*
X14238Y-14793D01*
X14238Y-14838D01*
X14223Y-14868D01*
X14208Y-14883D01*
X14178Y-14898D01*
X14058Y-14898D01*
X14508Y-14838D02*
X14508Y-15048D01*
X14433Y-14718D02*
X14358Y-14943D01*
X14553Y-14943D01*
X4019Y-15088D02*
X4019Y-14773D01*
X4139Y-14773D01*
X4169Y-14788D01*
X4184Y-14803D01*
X4199Y-14833D01*
X4199Y-14878D01*
X4184Y-14908D01*
X4169Y-14923D01*
X4139Y-14938D01*
X4019Y-14938D01*
X4319Y-14803D02*
X4334Y-14788D01*
X4364Y-14773D01*
X4439Y-14773D01*
X4469Y-14788D01*
X4484Y-14803D01*
X4499Y-14833D01*
X4499Y-14863D01*
X4484Y-14908D01*
X4304Y-15088D01*
X4499Y-15088D01*
X7956Y-15088D02*
X7956Y-14773D01*
X8076Y-14773D01*
X8106Y-14788D01*
X8121Y-14803D01*
X8136Y-14833D01*
X8136Y-14878D01*
X8121Y-14908D01*
X8106Y-14923D01*
X8076Y-14938D01*
X7956Y-14938D01*
X8241Y-14773D02*
X8436Y-14773D01*
X8331Y-14893D01*
X8376Y-14893D01*
X8406Y-14908D01*
X8421Y-14923D01*
X8436Y-14953D01*
X8436Y-15028D01*
X8421Y-15058D01*
X8406Y-15073D01*
X8376Y-15088D01*
X8286Y-15088D01*
X8256Y-15073D01*
X8241Y-15058D01*
G54D10*
G54D18*
G54D20*
X17941Y-12299D02*
X17950Y-12272D01*
X17950Y-12227D01*
X17941Y-12209D01*
X17932Y-12200D01*
X17914Y-12191D01*
X17896Y-12191D01*
X17878Y-12200D01*
X17869Y-12209D01*
X17860Y-12227D01*
X17851Y-12263D01*
X17842Y-12281D01*
X17833Y-12290D01*
X17815Y-12299D01*
X17797Y-12299D01*
X17779Y-12290D01*
X17770Y-12281D01*
X17761Y-12263D01*
X17761Y-12218D01*
X17770Y-12191D01*
X17761Y-12128D02*
X17950Y-12083D01*
X17815Y-12047D01*
X17950Y-12011D01*
X17761Y-11966D01*
X17761Y-11912D02*
X17761Y-11795D01*
X17833Y-11858D01*
X17833Y-11831D01*
X17842Y-11813D01*
X17851Y-11804D01*
X17869Y-11795D01*
X17914Y-11795D01*
X17932Y-11804D01*
X17941Y-11813D01*
X17950Y-11831D01*
X17950Y-11885D01*
X17941Y-11903D01*
X17932Y-11912D01*
X15461Y-12299D02*
X15470Y-12272D01*
X15470Y-12227D01*
X15461Y-12209D01*
X15452Y-12200D01*
X15434Y-12191D01*
X15416Y-12191D01*
X15398Y-12200D01*
X15389Y-12209D01*
X15380Y-12227D01*
X15371Y-12263D01*
X15362Y-12281D01*
X15353Y-12290D01*
X15335Y-12299D01*
X15317Y-12299D01*
X15299Y-12290D01*
X15290Y-12281D01*
X15281Y-12263D01*
X15281Y-12218D01*
X15290Y-12191D01*
X15281Y-12128D02*
X15470Y-12083D01*
X15335Y-12047D01*
X15470Y-12011D01*
X15281Y-11966D01*
X15299Y-11903D02*
X15290Y-11894D01*
X15281Y-11876D01*
X15281Y-11831D01*
X15290Y-11813D01*
X15299Y-11804D01*
X15317Y-11795D01*
X15335Y-11795D01*
X15362Y-11804D01*
X15470Y-11912D01*
X15470Y-11795D01*
X17941Y-5015D02*
X17950Y-4988D01*
X17950Y-4943D01*
X17941Y-4925D01*
X17932Y-4916D01*
X17914Y-4907D01*
X17896Y-4907D01*
X17878Y-4916D01*
X17869Y-4925D01*
X17860Y-4943D01*
X17851Y-4979D01*
X17842Y-4997D01*
X17833Y-5006D01*
X17815Y-5015D01*
X17797Y-5015D01*
X17779Y-5006D01*
X17770Y-4997D01*
X17761Y-4979D01*
X17761Y-4934D01*
X17770Y-4907D01*
X17761Y-4844D02*
X17950Y-4799D01*
X17815Y-4763D01*
X17950Y-4727D01*
X17761Y-4682D01*
X17950Y-4511D02*
X17950Y-4619D01*
X17950Y-4565D02*
X17761Y-4565D01*
X17788Y-4583D01*
X17806Y-4601D01*
X17815Y-4619D01*
G54D16*
X12013Y-2665D02*
X11775Y-2798D01*
X12013Y-2893D02*
X11513Y-2893D01*
X11513Y-2741D01*
X11537Y-2703D01*
X11561Y-2684D01*
X11608Y-2665D01*
X11680Y-2665D01*
X11727Y-2684D01*
X11751Y-2703D01*
X11775Y-2741D01*
X11775Y-2893D01*
X11680Y-2322D02*
X12013Y-2322D01*
X11489Y-2417D02*
X11846Y-2512D01*
X11846Y-2265D01*
G54D17*
X9354Y-2590D02*
X9369Y-2605D01*
X9384Y-2650D01*
X9384Y-2680D01*
X9369Y-2725D01*
X9339Y-2755D01*
X9309Y-2770D01*
X9249Y-2785D01*
X9204Y-2785D01*
X9144Y-2770D01*
X9114Y-2755D01*
X9085Y-2725D01*
X9070Y-2680D01*
X9070Y-2650D01*
X9085Y-2605D01*
X9100Y-2590D01*
X9100Y-2470D02*
X9085Y-2455D01*
X9070Y-2425D01*
X9070Y-2350D01*
X9085Y-2320D01*
X9100Y-2305D01*
X9129Y-2290D01*
X9159Y-2290D01*
X9204Y-2305D01*
X9384Y-2485D01*
X9384Y-2290D01*
M02*
