M48
;DRILL file {Pcbnew (2013-jul-07)-stable} date jeu. 28 mai 2020 22:11:50 IST
;FORMAT={-:-/ absolute / metric / decimal}
FMAT,2
METRIC,TZ
T1C0.800
T2C0.813
T3C1.016
T4C1.499
%
G90
G05
M71
T1
X40.8Y-23.1
X40.8Y-25.1
X40.8Y-27.1
X47.1Y-4.7
X47.1Y-6.7
X47.1Y-8.7
X47.1Y-23.2
X47.1Y-25.2
X47.1Y-27.2
T2
X25.8Y-5.43
X25.8Y-7.97
X27.055Y-24.2
X27.055Y-28.3
X29.7Y-15.83
X29.7Y-18.37
X30.Y-2.155
X30.Y-11.045
X34.3Y-2.155
X34.3Y-11.045
X35.945Y-24.2
X35.945Y-28.3
T3
X2.43Y-27.82
X2.43Y-30.36
X2.43Y-32.9
X2.43Y-35.44
X2.43Y-37.98
X4.97Y-27.82
X4.97Y-30.36
X4.97Y-32.9
X4.97Y-35.44
X4.97Y-37.98
X13.33Y-38.
X15.87Y-38.
X20.93Y-22.49
X20.93Y-25.03
X20.93Y-27.57
X20.93Y-30.11
X23.33Y-38.
X23.47Y-22.49
X23.47Y-25.03
X23.47Y-27.57
X23.47Y-30.11
X25.87Y-38.
X38.99Y-37.9
X41.53Y-37.9
X44.07Y-37.9
X46.61Y-37.9
T4
X16.54Y-4.59
X19.08Y-10.94
T0
M30
